HIERARCHY
ROOT root
{
	OFFSET	0	13.1	24.9
	CHANNELS 6  Xposition Yposition Zposition Xrotation Yrotation Zrotation
	JOINT spine_1
	{
		OFFSET	0	9.99999	0
		CHANNELS 3  Xrotation Yrotation Zrotation
		JOINT spine_2
		{
			OFFSET	0	112	-10
			CHANNELS 3  Xrotation Yrotation Zrotation
			JOINT spine_3
			{
				OFFSET	0	206.5	19.3
				CHANNELS 3  Xrotation Yrotation Zrotation
				JOINT spine_4
				{
					OFFSET	0	110.4	14.6
					CHANNELS 3  Xrotation Yrotation Zrotation
					JOINT neck_1
					{
						OFFSET	0	71.8	-50.3
						CHANNELS 3  Xrotation Yrotation Zrotation
						JOINT neck_2
						{
							OFFSET	0	86.2	-25.8
							CHANNELS 3  Xrotation Yrotation Zrotation
							JOINT head_ee
							{
								OFFSET	0	179.8	-8.7
								CHANNELS 3  Xrotation Yrotation Zrotation
								End Site
								{
									OFFSET	1	0	0
								}
							}
						}
					}
					JOINT left_clavicle
					{
						OFFSET	-43.2	22.4	-70.8
						CHANNELS 3  Xrotation Yrotation Zrotation
						JOINT left_shoulder
						{
							OFFSET	-93.9	-5.79999	48.7
							CHANNELS 3  Xrotation Yrotation Zrotation
							JOINT left_elbow
							{
								OFFSET	-291.4	-30.8	15.2
								CHANNELS 3  Xrotation Yrotation Zrotation
								JOINT left_lowarm_twist
								{
									OFFSET	-110.7	-3.89999	13.6
									CHANNELS 3  Xrotation Yrotation Zrotation
									JOINT left_hand
									{
										OFFSET	-110.7	-3.89999	13.6
										CHANNELS 3  Xrotation Yrotation Zrotation
										JOINT left_ee
										{
											OFFSET	-80.8	-5.10001	12.1
											CHANNELS 3  Xrotation Yrotation Zrotation
											End Site
											{
												OFFSET	1	0	0
											}
										}
									}
								}
							}
						}
					}
					JOINT right_clavicle
					{
						OFFSET	43.2	22.4	-70.8
						CHANNELS 3  Xrotation Yrotation Zrotation
						JOINT right_shoulder
						{
							OFFSET	93.9	-5.79999	48.7
							CHANNELS 3  Xrotation Yrotation Zrotation
							JOINT right_elbow
							{
								OFFSET	291.4	-30.8	15.2
								CHANNELS 3  Xrotation Yrotation Zrotation
								JOINT right_lowarm_twist
								{
									OFFSET	110.7	-3.89999	13.6
									CHANNELS 3  Xrotation Yrotation Zrotation
									JOINT right_hand
									{
										OFFSET	110.7	-3.89999	13.6
										CHANNELS 3  Xrotation Yrotation Zrotation
										JOINT right_ee
										{
											OFFSET	80.8	-5.10001	12.1
											CHANNELS 3  Xrotation Yrotation Zrotation
											End Site
											{
												OFFSET	1	0	0
											}
										}
									}
								}
							}
						}
					}
				}
			}
		}
	}
	JOINT left_hip
	{
		OFFSET	-82.8	-127.5	0.300001
		CHANNELS 3  Xrotation Yrotation Zrotation
		JOINT left_knee
		{
			OFFSET	-28.2	-396.7	2.2
			CHANNELS 3  Xrotation Yrotation Zrotation
			JOINT left_ankle
			{
				OFFSET	-11.7	-411.3	35.4
				CHANNELS 3  Xrotation Yrotation Zrotation
				JOINT left_toes
				{
					OFFSET	0	-60	-88.6
					CHANNELS 3  Xrotation Yrotation Zrotation
					JOINT left_foot_ee
					{
						OFFSET	-22.5	-16.5	-42.2
						CHANNELS 3  Xrotation Yrotation Zrotation
						End Site
						{
							OFFSET	1	0	0
						}
					}
				}
			}
		}
	}
	JOINT right_hip
	{
		OFFSET	82.8	-127.5	0.300001
		CHANNELS 3  Xrotation Yrotation Zrotation
		JOINT right_knee
		{
			OFFSET	28.2	-396.7	2.2
			CHANNELS 3  Xrotation Yrotation Zrotation
			JOINT right_ankle
			{
				OFFSET	11.7	-411.3	35.4
				CHANNELS 3  Xrotation Yrotation Zrotation
				JOINT right_toes
				{
					OFFSET	0	-60	-88.6
					CHANNELS 3  Xrotation Yrotation Zrotation
					JOINT right_foot_ee
					{
						OFFSET	22.5	-16.5	-42.2
						CHANNELS 3  Xrotation Yrotation Zrotation
						End Site
						{
							OFFSET	1	0	0
						}
					}
				}
			}
		}
	}
}
MOTION
Frames: 6
Frame Time: 0.02
2883.76 636.754 -554.352 -29.0152 -86.1617 -29.3059 3.4011 -0.207118 -0.977128 3.40162 -0.144524 -0.988325 3.4039 0.00712884 -0.99881 3.40254 -0.150696 -0.987403 -17.2253 12.2123 8.32903 -17.4195 18.8682 12.3249 -0.0 0.0 -0.0 6.93356 5.25382 13.4077 -2.76731 -28.7105 62.705 4.3442 -65.0559 2.77133 62.4378 -1.9957 -7.32816 -2.26054 26.5765 -2.06469 -0.0 0.0 -0.0 9.02157 -23.253 -15.4161 -29.0002 2.57629 -58.4787 0.235782 6.66209 -0.0137233 22.8507 -0.231485 2.8905 -2.90369 -28.6992 4.4624 0.0 0.0 0.0 -10.5879 9.99159 -1.44063 -26.8726 0.151091 4.08347 41.2145 19.588 -5.12947 16.443 -0.0 -0.0 -0.0 0.0 -0.0 38.3384 -15.3092 4.64755 -7.48116 -0.234956 -1.12328 -14.6097 3.28445 -2.23825 13.196 -0.0 -0.0 0.0 0.0 0.0 
2906.56 636.485 -550.61 -17.1686 -85.1728 -17.5931 3.41928 -0.13355 -0.983322 3.41981 -0.0707107 -0.989826 3.42081 0.0800341 -0.989116 3.41945 -0.0771748 -0.989343 -16.8488 12.4074 8.01754 -17.0643 19.3496 12.0438 -0.0 0.0 -0.0 6.92622 5.08285 13.3973 -5.54685 -29.1058 62.3777 4.30623 -64.8634 2.73693 61.7036 -1.92793 -7.26282 -2.23875 26.4269 -2.01917 -0.0 0.0 -0.0 9.23626 -23.2022 -15.7432 -28.6104 2.36067 -58.4323 0.274242 7.73654 -0.0185434 23.2062 -0.225931 2.93557 -2.68093 -28.6322 3.29717 0.0 0.0 0.0 -11.2544 9.84409 -2.81389 -27.8414 0.120675 4.22903 40.8266 19.2394 -5.08658 16.876 -0.0 -0.0 -0.0 0.0 -0.0 37.8443 -15.1746 4.57849 -9.33162 -0.270289 -1.40503 -14.2306 4.05626 -2.1859 13.6633 -0.0 -0.0 0.0 0.0 0.0 
2932.43 639.022 -546.566 -15.2457 -84.4097 -15.6823 3.41653 -0.086441 -1.04768 3.41714 -0.0196032 -1.05105 3.41724 0.139901 -1.04189 3.41573 -0.0263922 -1.0509 -16.8464 12.0329 7.23979 -17.0856 19.0624 11.1876 -0.0 0.0 -0.0 6.95359 4.84149 13.4539 -8.35024 -29.2548 62.4519 4.04396 -63.4538 2.50087 60.8183 -1.84732 -7.1829 -2.33709 26.9925 -2.27667 -0.0 0.0 -0.0 9.52821 -23.1007 -16.1966 -27.8719 2.44971 -57.6489 0.33468 9.41368 -0.027556 23.8885 -0.214487 3.02198 -2.43241 -28.7336 1.90637 0.0 0.0 0.0 -12.9997 10.2162 -3.75612 -25.3094 0.194966 3.84758 37.1747 19.4826 -4.74807 16.4981 -0.0 -0.0 -0.0 0.0 -0.0 37.8853 -14.9394 4.75083 -12.7043 -0.311214 -1.92084 -15.4927 7.0138 -2.41384 13.9831 -0.0 -0.0 0.0 0.0 0.0 
2962.14 645.981 -540.373 -8.93377 -84.5147 -9.40223 3.24677 -0.0429079 -0.970365 3.2473 0.0189229 -0.971128 3.24677 0.16872 -0.956548 3.24549 0.0155411 -0.971188 -15.217 12.2728 6.13003 -15.4667 19.8982 9.94563 -0.0 0.0 -0.0 6.86501 5.80347 13.267 -10.9394 -28.7138 61.8778 3.8471 -62.2956 2.32565 60.4252 -1.81193 -7.14701 -2.27389 26.8662 -1.99264 -0.0 0.0 -0.0 9.90634 -22.0794 -16.9502 -27.0708 2.93314 -57.506 0.374514 10.5104 -0.0344474 23.9036 -0.214224 3.02388 -2.2886 -28.6795 1.16079 0.0 0.0 0.0 -11.5043 10.2038 -6.19745 -29.6608 0.0569071 4.50098 37.4797 19.5584 -4.77944 16.09 -0.0 -0.0 -0.0 0.0 -0.0 36.1145 -14.5974 5.2247 -17.1676 -0.318605 -2.60542 -11.8315 8.45422 -1.8504 16.1941 -0.0 -0.0 0.0 0.0 0.0 
2988.56 647.167 -533.79 -4.08215 -84.2297 -5.00031 2.98835 -0.0635689 -0.946507 2.98885 -0.00321416 -0.948634 2.98874 0.147592 -0.937089 2.98752 -0.00224893 -0.948636 -15.2628 11.9247 6.15953 -15.4881 19.2196 9.85645 -0.0 0.0 -0.0 6.7159 6.05354 12.9828 -13.601 -28.0009 61.7507 3.48551 -59.9074 2.00902 58.437 -1.63677 -6.96189 -2.27403 26.2373 -2.30997 -0.0 0.0 -0.0 10.2485 -23.8268 -17.1421 -26.9782 5.25283 -56.2035 0.523567 14.54 -0.0667925 24.6138 -0.201197 3.11367 -1.92001 -28.8165 -0.885726 0.0 0.0 0.0 -11.3933 10.2607 -6.76271 -31.1854 -0.00315843 4.72722 37.5936 19.8321 -4.79636 18.0368 -0.0 -0.0 -0.0 0.0 -0.0 35.438 -13.6759 4.99656 -19.5089 -0.301158 -2.96421 -8.42572 7.33062 -1.30383 17.5161 -0.0 -0.0 0.0 0.0 0.0 
3020.17 652.789 -534.581 2.76098 -84.2263 1.50261 2.99837 0.047741 -0.822716 2.99874 0.099994 -0.818012 2.99718 0.228619 -0.791756 2.99632 0.100711 -0.817924 -14.0317 11.6463 5.88291 -14.2002 18.6585 9.28277 -0.0 0.0 -0.0 6.75982 8.07085 13.0149 -15.7461 -27.2535 62.489 3.07479 -56.702 1.65942 56.0116 -1.43199 -6.72806 -2.25761 23.9249 -3.38208 -0.0 0.0 -0.0 10.369 -23.1534 -17.4575 -24.6227 4.1221 -56.0116 0.556484 15.4119 -0.0752988 24.3566 -0.206043 3.08117 -1.78119 -28.6916 -1.5725 0.0 0.0 0.0 -10.6296 9.93878 -6.75481 -36.1514 -0.240247 5.45199 37.3518 24.4424 -4.88956 17.9679 -0.0 -0.0 -0.0 0.0 -0.0 32.9937 -13.601 5.29533 -22.2959 -0.261303 -3.38996 -1.34314 7.33269 -0.204911 18.1632 -0.0 -0.0 0.0 0.0 0.0 
